<svg width="388" height="257" viewBox="0 0 388 257" fill="none" xmlns="http://www.w3.org/2000/svg">
<path d="M339.01 62.2779C299.894 7.84577 217.262 -14.234 135.996 9.54759C93.0336 22.1197 51.6094 47.31 31.0789 96.0859C-5.6177 183.277 71.431 211.125 121.816 220C146.178 224.291 169.124 231.501 190.091 241.316C227.813 258.974 294.586 274.62 344.936 201.066C381.43 147.753 365.066 98.5347 339.01 62.2779Z" fill="#F2F2F2"/>
<path d="M112.214 73.0482C112.105 72.1831 111.883 71.3359 111.556 70.5278C111.514 70.375 111.441 70.2326 111.341 70.1096C111.241 69.9866 111.117 69.8857 110.976 69.8135C110.787 69.7645 110.59 69.7623 110.4 69.807L107.445 70.2591C107.198 70.2704 106.961 70.3624 106.771 70.5211C106.386 70.9258 106.765 71.5775 106.754 72.1359C106.74 72.7637 106.183 73.2733 105.578 73.4419C104.96 73.5667 104.323 73.5588 103.709 73.4188L99.5773 72.7767C100.794 72.3883 101.877 71.6655 102.703 70.691C103.247 70.0469 103.536 68.8444 102.75 68.5394C102.517 68.4753 102.273 68.4558 102.033 68.4818C100.161 68.4963 98.6878 66.9334 96.9352 66.2752C95.8136 65.8811 94.5961 65.8518 93.4569 66.1914C92.3176 66.531 91.3149 67.2222 90.5921 68.1661L92.7931 68.2722C93.0001 68.2608 93.2055 68.3155 93.3794 68.4286C93.8617 68.8249 93.262 69.5861 93.33 70.2066C93.4183 71.0128 94.4888 71.185 95.2957 71.2665C96.1027 71.348 97.1264 72.0037 96.7383 72.7158C92.6823 74.1128 88.5551 69.9849 84.2955 70.4931C83.2174 70.6217 82.1994 71.0452 81.1469 71.3115C74.7171 72.9383 68.0699 68.5978 61.5016 69.517C60.0414 69.766 58.6063 70.1445 57.2133 70.648C56.3193 70.9416 55.3869 71.2588 54.7373 71.9395C54.0878 72.6202 53.8406 73.7844 54.4559 74.4962C52.7598 74.6359 51.0524 74.4736 49.4131 74.0168C49.8564 74.2633 50.2252 74.6245 50.4808 75.0626C50.7363 75.5007 50.8692 75.9995 50.8656 76.5067C48.2174 76.9385 45.6394 77.7246 43.2008 78.8438C43.6559 79.6006 44.1875 80.3088 44.7872 80.9571L41.4348 83.1109C42.5675 83.3963 43.1531 84.9407 42.4944 85.9053C43.6688 85.3828 44.3966 84.0313 45.6526 83.7572C46.4753 83.5777 47.3125 83.9143 48.093 84.2305C48.8735 84.5466 49.7313 84.8532 50.5394 84.6159C51.3474 84.3787 51.9433 83.331 51.4299 82.6635C54.8835 81.6559 58.4526 81.0983 62.049 81.0045C62.3264 80.9696 62.6078 81.023 62.8532 81.1571C63.3214 81.4819 63.1982 82.1834 63.173 82.7526C63.1477 83.3218 63.5914 84.0699 64.1002 83.8134C63.5016 84.3324 64.0133 85.3095 64.5875 85.8552C65.1618 86.401 65.8539 87.1541 65.5024 87.8641C65.4106 88.0494 65.255 88.1976 65.1667 88.3846C64.9061 88.9365 65.3198 89.5799 65.8079 89.9464C66.2959 90.3129 66.8937 90.569 67.2327 91.0766C67.5717 91.5841 67.4178 92.4724 66.8115 92.5433L65.0885 90.3556C64.4998 90.9661 64.0962 91.7308 63.9246 92.5613C65.7517 94.0549 66.0265 97.095 64.4969 98.8921C63.7151 99.8104 62.6035 100.368 61.6333 101.085C60.6631 101.801 59.7653 102.821 59.7678 104.027C59.772 106.111 59.6017 108.046 60.3825 109.978C61.8222 113.54 63.4843 117.008 65.3591 120.361C65.8515 121.241 66.4878 122.206 67.4852 122.358C66.2247 119.29 65.09 116.173 64.0812 113.009C64.7383 113.012 65.4977 113.064 65.8829 113.596C66.2019 114.037 66.1334 114.636 66.2325 115.172C66.3586 115.69 66.5688 116.184 66.8548 116.634L72.8742 127.356C73.3732 128.245 73.9456 129.199 74.8993 129.559C75.509 129.79 76.2144 129.746 76.7756 130.077C77.2155 130.337 77.5118 130.798 77.9602 131.043C79.2282 131.735 80.9916 130.408 82.1765 131.234C82.5153 131.47 82.7308 131.845 83.043 132.115C84.1375 133.063 85.9328 132.429 87.1963 133.136C88.0105 133.592 88.4325 134.503 88.8668 135.329C89.9547 137.398 91.7149 139.424 94.0465 139.589C94.7788 139.641 95.5269 139.502 96.2427 139.665C96.9586 139.827 97.6633 140.452 97.5484 141.177C97.3514 142.42 97.9656 143.782 97.8006 145.029C97.5002 147.302 94.2762 148.301 93.9991 150.577C93.9385 151.075 94.0334 151.59 93.9148 152.077C93.7693 152.675 93.3204 153.162 93.1609 153.756C92.8585 154.882 93.6653 156.003 94.5515 156.76C95.4378 157.518 96.4949 158.171 96.9795 159.231C97.4916 160.352 97.24 161.659 97.4066 162.88C97.7702 165.546 100.073 167.522 102.442 168.796C103.164 169.184 103.939 169.56 104.406 170.234C105.016 171.113 104.956 172.271 105.159 173.322C105.658 175.894 107.823 178.013 107.885 180.633C107.929 182.495 106.894 184.184 106.275 185.941C105.696 187.624 105.486 189.412 105.66 191.184C105.835 192.955 106.389 194.668 107.286 196.206C107.749 196.987 108.302 197.723 108.629 198.57C109.213 200.08 109.023 201.798 109.562 203.325C110.273 205.345 112.229 207.013 112.042 209.146C112.929 210.99 114.89 211.895 116.861 212.444L120.394 213.428C121.071 213.616 121.778 213.806 122.467 213.669C123.156 213.533 123.813 212.961 123.795 212.259C122.063 211.868 120.275 211.453 118.846 210.397C117.418 209.341 116.44 207.461 116.982 205.77C117.233 204.986 117.768 204.08 117.259 203.432C116.968 203.061 116.436 202.964 116.108 202.625C115.596 202.097 115.772 201.21 116.14 200.574C116.508 199.937 117.04 199.368 117.188 198.648C117.263 198.245 117.213 197.828 117.045 197.455C116.877 197.081 116.598 196.768 116.246 196.557C116.902 196.31 117.497 195.927 117.995 195.435C118.455 194.91 118.667 194.1 118.306 193.503C119.38 193.639 120.648 193.706 121.354 192.884C121.917 192.228 121.878 191.247 121.655 190.411C121.433 189.576 121.057 188.764 121.045 187.899C123.523 188.017 126.007 187.933 128.471 187.648C128.115 186.447 127.305 185.433 126.214 184.82C127.33 184.631 128.347 183.295 128.699 182.219C129.052 181.143 128.962 179.972 128.744 178.861C128.66 178.575 128.649 178.273 128.711 177.981C128.836 177.581 129.23 177.336 129.594 177.127L135.134 173.945C135.465 173.779 135.764 173.558 136.02 173.291C136.601 172.609 136.515 171.58 136.217 170.735C135.92 169.891 135.444 169.096 135.33 168.208C134.987 165.552 137.83 163.646 138.79 161.146C139.166 160.165 139.243 159.099 139.316 158.05C139.394 156.924 139.4 155.616 138.535 154.891C137.707 154.195 136.412 154.35 135.544 153.703C134.749 153.11 134.475 151.958 133.606 151.479C132.818 151.044 131.828 151.32 130.951 151.116C129.406 150.755 128.434 148.975 126.857 148.81C125.967 148.717 124.959 149.152 124.23 148.634C123.587 148.177 123.561 147.259 123.439 146.48C123.224 145.269 122.644 144.153 121.776 143.283C120.908 142.412 119.794 141.828 118.584 141.61C117.666 141.462 116.667 141.518 115.886 141.014C115.096 140.503 114.733 139.547 114.112 138.84C113.111 137.7 111.535 137.295 110.058 136.948L104.052 135.536C102.985 135.285 101.611 135.152 101.039 136.086C100.869 136.442 100.749 136.819 100.682 137.207C100.468 137.909 100.036 138.525 99.4499 138.967C98.8634 139.408 98.152 139.652 97.418 139.664C96.9146 138.806 96.0991 138.175 95.1416 137.903C94.5325 137.733 93.8806 137.714 93.2997 137.465C92.9833 137.31 92.7018 137.093 92.4724 136.826C92.2429 136.559 92.0704 136.248 91.9653 135.912C91.8602 135.576 91.8247 135.222 91.8612 134.872C91.8976 134.522 92.0051 134.183 92.1771 133.875C92.5234 133.259 92.6571 132.546 92.5576 131.845C92.4582 131.145 92.131 130.497 91.6268 130.002C90.6053 129.085 89.1277 128.863 87.7582 128.955C87.3995 128.172 87.9993 127.289 88.6456 126.72C89.292 126.151 90.0768 125.592 90.2176 124.743C90.439 123.407 88.7341 122.392 87.4397 122.79C86.1453 123.189 85.3191 124.446 84.773 125.685C84.4596 126.396 84.1932 127.145 83.699 127.745C83.2047 128.344 82.4087 128.774 81.6558 128.581C80.59 128.309 80.1783 127.043 79.9425 125.968C79.626 124.526 79.3076 123.065 79.3739 121.59C79.4403 120.116 79.9373 118.602 81.0246 117.604C82.7964 115.977 85.5145 116.136 87.9055 116.396C87.3406 115.759 87.4802 114.687 88.0847 114.088C88.4038 113.804 88.7872 113.603 89.2017 113.501C89.6162 113.399 90.0493 113.4 90.4634 113.503C91.1839 113.653 91.833 114.041 92.3062 114.605C92.9857 115.433 93.1789 116.552 93.6925 117.492C94.2061 118.433 95.361 119.235 96.3063 118.73C97.1228 118.295 97.2524 117.162 97.0492 116.259C96.846 115.357 96.4144 114.479 96.488 113.556C96.6285 111.796 98.4532 110.736 100.063 110.011C101.673 109.286 103.517 108.311 103.773 106.564C103.781 106.222 103.846 105.883 103.964 105.562C104.142 105.278 104.39 105.045 104.685 104.884C109.384 101.778 114.162 98.6348 119.533 96.9377C119.813 96.8494 119.845 96.9475 120.13 96.8783C120.529 96.648 120.265 96.0107 119.883 95.754C119.5 95.4972 118.99 95.3004 118.893 94.8504C118.821 94.5195 119.016 94.1947 119.067 93.8601C119.191 93.0379 118.208 92.2787 117.444 92.6075C117.012 92.0361 117.866 91.3721 118.556 91.1821C120.629 90.6116 122.757 90.264 124.904 90.1452C125.152 90.1058 125.406 90.1489 125.626 90.268C125.987 90.5178 125.941 91.0906 125.685 91.4471C125.43 91.8036 125.032 92.0274 124.714 92.3291C124.366 92.668 124.118 93.096 123.996 93.5663C123.875 94.0366 123.885 94.5312 124.026 94.9961C125.147 95.5661 126.365 96.1529 127.606 95.9521C128.848 95.7513 129.949 94.3567 129.366 93.2429C128.823 92.2057 127.191 91.9718 126.91 90.835C126.581 89.5041 128.465 88.3204 128.041 87.0169C127.855 86.4459 127.286 86.1098 126.849 85.6976C126.334 85.1922 125.983 84.5426 125.843 83.8341C125.703 83.1257 125.781 82.3915 126.066 81.728C125.355 81.8532 124.624 81.8059 123.935 81.5902C123.245 81.3746 122.618 80.9968 122.105 80.4885C121.157 79.5324 120.402 78.0241 119.056 78.0669C117.822 78.1061 116.758 79.5465 115.604 79.107C115.32 78.9989 115.02 78.7789 114.745 78.9078C114.655 78.9664 114.579 79.0447 114.524 79.1368C114.468 79.2289 114.435 79.3324 114.425 79.4395C114.132 80.842 114.636 82.4401 113.872 83.6521C113.04 84.971 111.116 85.1539 110.107 86.3432C109.56 86.9888 109.348 87.8587 108.845 88.5394C108.341 89.2201 107.273 89.6528 106.67 89.0596C106.966 88.4495 107.047 87.7568 106.899 87.0946C106.751 86.4325 106.383 85.8401 105.855 85.4143C105.294 85.0486 104.69 84.7546 104.056 84.5394C103.348 84.2396 102.674 83.864 102.047 83.4193C101.732 83.2297 101.477 82.9564 101.309 82.63C101.176 82.2212 101.194 81.7784 101.359 81.3817C101.666 80.5038 102.206 79.7262 102.922 79.1328C103.637 78.5395 104.502 78.1529 105.421 78.0149C106.225 77.9055 107.161 77.9441 107.693 77.3315C107.975 77.0073 108.122 76.5173 108.531 76.3856C108.792 76.3331 109.064 76.3665 109.305 76.4809L112.306 77.5372C112.64 77.6884 113.009 77.7493 113.375 77.714C113.556 77.6896 113.721 77.5975 113.838 77.4562C113.954 77.3149 114.012 77.1349 114.001 76.9523C113.905 76.4539 113.139 76.2148 113.208 75.7121C113.247 75.5492 113.335 75.402 113.46 75.2899C114.543 74.1372 115.867 73.2382 117.338 72.6573C118.809 72.0763 120.391 71.8279 121.969 71.9296C122.348 72.5517 121.749 73.2883 121.25 73.8194C120.752 74.3505 120.351 75.2993 120.954 75.7081C121.201 75.8342 121.476 75.8961 121.753 75.8881C122.492 75.9881 123.21 76.2059 123.88 76.5331C124.917 76.9844 125.934 77.4782 126.931 78.0145C126.843 77.357 126.759 76.6643 127.008 76.0495C127.258 75.4347 127.966 74.9525 128.585 75.1919C129.181 75.4226 129.487 76.2121 130.122 76.2844C130.969 76.3809 131.303 75.1291 130.95 74.3532C130.596 73.5773 129.895 72.9276 129.836 72.0768C129.797 71.5028 130.015 70.7909 129.557 70.4434C129.394 70.339 129.209 70.2741 129.016 70.2537L117.568 68.147C116.888 68.0219 115.906 68.1178 115.875 68.8083C115.859 69.1938 116.203 69.5752 116.05 69.9296C115.888 70.3079 115.353 70.2733 114.963 70.4071C114.359 70.6147 114.056 71.3322 114.114 71.9685C114.22 72.6008 114.465 73.2017 114.831 73.7282C114.086 73.4168 112.959 73.3597 112.214 73.0482Z" fill="#3F3D56"/>
<path d="M103.078 63.3294C102.356 63.0905 101.578 63.0794 100.85 63.2976C100.121 63.5157 99.4776 63.9526 99.0058 64.549C98.8173 64.7972 98.659 65.1393 98.8168 65.408C99.0431 65.7933 99.6196 65.6412 100.045 65.5033C100.669 65.2801 101.349 65.2639 101.984 65.4571C102.383 65.5941 102.74 65.8363 103.141 65.9681C103.336 66.0497 103.55 66.0767 103.759 66.0461C103.968 66.0155 104.165 65.9285 104.329 65.7945C104.604 65.5139 104.621 65.0778 104.622 64.6848C104.641 64.5533 104.63 64.4192 104.591 64.2923C104.552 64.1654 104.484 64.0489 104.394 63.9513C104.234 63.8584 104.054 63.805 103.868 63.7957C103.454 63.719 103.079 63.4999 102.808 63.1763" fill="#3F3D56"/>
<path d="M107.208 62.1812C107.047 62.1724 106.885 62.2053 106.74 62.2768C106.595 62.3482 106.471 62.4559 106.379 62.5893C106.288 62.7227 106.232 62.8774 106.218 63.0385C106.203 63.1997 106.23 63.3618 106.297 63.5094C106.793 63.6447 107.311 63.6785 107.821 63.6088C108.075 63.5693 108.312 63.4555 108.501 63.2817C108.691 63.1079 108.825 62.8819 108.886 62.6321C108.286 62.7413 107.667 62.6231 107.149 62.3005" fill="#3F3D56"/>
<path d="M121.057 60.2597C119.707 60.5468 118.395 60.9924 117.149 61.5872C117.736 61.813 118.236 62.2214 118.573 62.7524C118.911 63.2833 119.069 63.9087 119.024 64.5363C118.972 64.7773 118.978 65.0274 119.042 65.2655C119.186 65.6134 119.602 65.744 119.967 65.8333C120.624 66.0332 121.31 66.1208 121.996 66.0923C122.34 66.0743 122.673 65.9711 122.966 65.7919C123.259 65.6127 123.503 65.3632 123.676 65.066C123.775 64.7839 123.892 64.5082 124.025 64.2404C124.902 62.9056 127.505 64.5196 128.446 63.2294C128.778 62.775 128.747 62.0909 129.18 61.7308C129.403 61.5739 129.662 61.475 129.933 61.4431C131.826 61.0671 133.737 60.7949 135.659 60.6276C136.57 60.5484 137.757 60.2213 137.765 59.3072C134.334 58.6335 130.778 59.112 127.647 60.6683C126.519 61.2332 125.028 62.4215 123.941 61.6725C123.534 61.3921 123.555 60.6371 122.995 60.3217C122.422 59.9994 121.665 60.1306 121.057 60.2597Z" fill="#3F3D56"/>
<path d="M132.276 62.3599L133.886 62.6693C133.59 62.6561 133.294 62.7064 133.018 62.8166C132.743 62.9269 132.494 63.0946 132.289 63.3086C132.083 63.5226 131.926 63.778 131.827 64.0577C131.728 64.3374 131.69 64.635 131.715 64.9306C133.223 65.4343 134.867 64.9441 136.455 65.0111C138.044 65.0781 139.892 66.2127 139.621 67.7793C139.539 68.253 139.265 68.7263 139.407 69.1855C139.507 69.5074 139.791 69.7357 139.951 70.0321C140.285 70.6498 140.018 71.431 139.597 71.9925C139.175 72.554 138.608 73.002 138.238 73.5987C137.318 75.0827 137.841 77.0014 138.389 78.6593C138.548 79.2858 138.84 79.8703 139.247 80.3725C140.059 81.2361 141.383 81.3112 142.568 81.3285C143.431 81.3411 144.419 81.2985 144.965 80.63C145.677 79.7573 145.179 78.3957 145.648 77.3714C146.074 76.4411 147.159 76.0421 148.142 75.759C149.943 75.2405 151.779 74.7997 153.482 74.0164C155.596 73.0439 157.572 71.5282 159.896 71.403C160.548 71.3679 161.216 71.4448 161.844 71.2662C162.473 71.0876 163.069 70.5446 163.022 69.8934C162.981 69.337 162.51 68.9284 162.142 68.5089C161.775 68.0895 161.486 67.4445 161.824 67.0007L167.915 65.8629C167.484 64.6861 167.147 63.1363 168.14 62.3702C168.498 62.0938 168.977 61.9834 169.282 61.6492C169.801 61.0798 169.54 60.0989 168.94 59.6146C168.341 59.1303 167.53 59.0178 166.761 58.954C164.09 58.7322 161.404 58.8788 158.728 59.0255C153.497 59.3122 148.265 59.599 143.034 59.8857C141.981 59.9435 140.765 59.8553 139.799 60.2146C138.981 60.5187 138.4 61.0771 137.465 61.2732C135.738 61.6354 133.838 61.3906 132.276 62.3599Z" fill="#3F3D56"/>
<path d="M161.122 75.087C160.958 75.061 160.79 75.0991 160.654 75.1933C160.563 75.2929 160.509 75.4204 160.501 75.5547C160.397 76.1475 160.521 76.7577 160.848 77.2631C161.014 77.511 161.244 77.7098 161.513 77.8389C161.783 77.968 162.081 78.0227 162.379 77.9973C163.104 77.9048 163.638 77.2862 164.305 76.9844C165.332 76.5196 169.695 75.795 166.677 74.1644C165.637 73.6025 164.965 74.0985 164.145 74.4686C163.213 74.9458 162.167 75.1596 161.122 75.087Z" fill="#3F3D56"/>
<path d="M187.558 61.4372C187.206 61.5812 186.911 61.8378 186.719 62.1671C186.631 62.3342 186.611 62.5289 186.662 62.7107C186.714 62.8925 186.833 63.0476 186.996 63.1439C187.127 63.1916 187.267 63.2138 187.407 63.2091L188.84 63.2519C189.449 63.2701 190.209 63.3998 190.373 63.9864C190.494 64.422 190.222 64.9818 190.55 65.2931C190.691 65.4021 190.86 65.4681 191.038 65.4832C191.51 65.6045 192.003 65.6204 192.482 65.5298C193.524 65.2501 192.976 64.6138 193.305 64.0472C193.807 63.1802 193.72 63.705 194.605 63.2081C195.259 62.8412 196.104 62.1755 195.558 61.2402C194.609 59.6138 188.958 60.7385 187.558 61.4372Z" fill="#3F3D56"/>
<path d="M215.842 60.6199L215.01 60.731C213.133 60.9814 211.246 61.2341 209.439 61.7975C210.221 62.1068 211.042 62.3082 211.879 62.3961C212.339 62.4187 212.797 62.4837 213.245 62.5904C214.044 62.828 214.848 63.4416 215.619 63.1273C216.097 62.9324 216.253 62.4345 216.649 62.1707C216.923 61.9885 217.96 61.6936 218.076 61.5098C219.014 60.0231 216.563 60.5238 215.842 60.6199Z" fill="#3F3D56"/>
<path d="M219.498 64.4015C218.386 65.023 217.355 65.7782 216.427 66.6503C216.036 67.0178 215.637 67.4749 215.672 68.0103C215.719 68.7219 216.477 69.1346 217.134 69.4127L219.794 70.5389C220.117 70.0841 219.821 69.4562 219.488 69.0093C219.154 68.5623 218.758 68.0452 218.905 67.5073C219.073 66.8936 219.822 66.6844 220.449 66.5786C221.472 66.4064 224.23 66.4202 223.899 64.7723C223.508 62.8307 220.524 63.8278 219.498 64.4015Z" fill="#3F3D56"/>
<path d="M218.962 174.282C218.708 175.015 218.684 175.879 219.122 176.519C219.614 177.237 220.598 177.505 221.449 177.323C222.296 177.097 223.052 176.612 223.608 175.934C224.118 175.367 224.537 174.724 224.851 174.029C225.289 172.946 225.598 171.815 225.772 170.66L226.597 166.324C226.782 165.355 226.775 162.383 224.994 163.352C224.507 163.616 223.38 165.704 222.87 166.296C221.951 167.363 221.83 168.399 221.346 169.692C220.74 171.311 219.522 172.661 218.962 174.282V174.282Z" fill="#3F3D56"/>
<path d="M313.029 196.473C312.446 196.246 311.88 195.976 311.336 195.667C310.791 197.167 310.5 198.748 310.478 200.344L314.466 198.087C315.066 197.748 315.746 197.276 315.733 196.587C315.739 196.501 315.721 196.416 315.682 196.34C315.644 196.265 315.585 196.2 315.513 196.155C315.424 196.119 315.328 196.108 315.233 196.122C314.642 196.171 314.103 196.462 313.545 196.665C312.987 196.867 312.335 196.974 311.823 196.674" fill="#3F3D56"/>
<path d="M334.089 197.812C333.652 197.931 333.224 198.084 332.81 198.271C331.895 198.736 331.272 199.621 330.449 200.234C329.661 200.821 328.712 201.143 327.781 201.457C327.507 201.699 327.632 202.187 327.93 202.399C328.25 202.581 328.616 202.664 328.983 202.636C329.951 202.658 330.97 202.667 331.818 202.2C332.295 201.89 332.742 201.535 333.152 201.14C334.143 200.314 335.333 199.768 336.511 199.241C336.94 199.079 337.336 198.842 337.682 198.541C338.422 197.812 338.474 196.687 337.407 196.438C336.544 196.238 334.91 197.546 334.089 197.812Z" fill="#3F3D56"/>
<path d="M343.375 191.74C343.423 191.238 343.356 190.732 343.18 190.26C343.003 189.787 342.722 189.361 342.357 189.014C342.346 190.018 342.315 191.087 341.751 191.917C341.348 192.509 340.718 192.909 340.277 193.472C339.836 194.036 339.64 194.929 340.157 195.423C340.488 195.675 340.89 195.813 341.306 195.819C342.335 195.94 343.526 196.007 344.248 195.264C344.642 194.858 344.834 194.257 345.314 193.958C345.493 193.883 345.653 193.769 345.782 193.624C345.98 193.308 345.665 192.893 345.31 192.779C344.955 192.665 344.564 192.719 344.208 192.611C343.851 192.503 343.524 192.102 343.707 191.777" fill="#3F3D56"/>
<path d="M326.854 154.929C326.314 155.061 325.755 155.094 325.203 155.027C324.287 154.858 323.574 154.168 322.834 153.601C321.076 152.262 318.938 151.515 316.728 151.468C314.718 151.43 312.689 151.975 310.715 151.595C310.844 152.312 311.458 152.85 312.113 153.17C312.768 153.49 313.491 153.651 314.149 153.964C315.203 154.471 316.039 155.341 316.504 156.414C316.716 156.909 316.849 157.447 317.17 157.879C317.826 158.762 319.07 158.956 320.168 158.884C321.6 158.79 323.095 158.378 324.426 158.911C325.445 159.319 326.174 160.211 327.025 160.904C327.875 161.598 329.074 162.112 330.05 161.612C329.036 161.283 328.153 160.639 327.53 159.774C326.908 158.908 326.578 157.866 326.59 156.799C327.548 156.888 330.307 156.853 330.158 155.226C330.033 153.846 327.677 154.78 326.854 154.929Z" fill="#3F3D56"/>
<path d="M314.317 166.154C314.487 165.221 315.418 164.397 315.128 163.494C314.927 162.87 314.203 162.562 313.548 162.546C312.892 162.531 312.248 162.726 311.593 162.744C311.166 162.722 310.738 162.728 310.312 162.763C309.011 162.976 308.209 164.34 306.983 164.825C306.237 165.12 305.4 165.064 304.624 165.268C302.864 165.73 301.75 167.394 300.519 168.735C298.531 170.893 295.941 172.403 293.084 173.072C292.083 173.303 291.007 173.452 290.211 174.102C289.158 174.962 288.898 176.438 288.664 177.778C288.016 181.479 287.027 185.113 285.708 188.631L289.888 189.165C290.682 189.266 291.506 189.365 292.272 189.13C292.828 188.92 293.355 188.639 293.84 188.295C295.701 187.139 297.785 186.387 299.955 186.087C301.05 185.937 302.198 185.909 303.225 186.316C304.252 186.723 305.133 187.646 305.219 188.747C305.664 188.609 306.137 188.594 306.589 188.704C307.041 188.814 307.455 189.045 307.786 189.372C308.44 190.038 308.869 190.894 309.011 191.818C309.121 192.39 309.231 193.075 309.762 193.315C310.195 193.51 310.692 193.3 311.165 193.262C312.772 193.133 314.106 195.007 315.686 194.684C317.38 194.338 317.796 191.801 319.448 191.293C320.398 191.001 321.729 191.356 322.183 190.473C322.584 189.695 321.785 188.797 321.867 187.925C321.969 186.852 323.234 186.397 324.21 185.939C327.574 184.361 329.17 179.833 327.54 176.494C326.574 174.516 324.674 172.958 324.323 170.785C324.053 169.113 324.712 167.163 323.646 165.847C323.104 165.177 322.185 164.808 321.863 164.009C321.66 163.506 321.741 162.935 321.632 162.404C321.523 161.873 321.059 161.317 320.535 161.455C319.012 161.854 318.526 166.559 317.71 167.702C316.471 169.439 313.927 168.294 314.317 166.154Z" fill="#3F3D56"/>
<path d="M286.174 156.707C285.654 156.561 285.085 156.418 284.587 156.626C284.088 156.835 283.797 157.567 284.197 157.93C287.328 157.808 290.478 157.687 293.582 158.112C297.159 158.602 300.698 159.815 304.29 159.458C302.239 158.853 300.153 158.369 298.044 158.009L294.527 157.337C293.584 157.14 292.63 156.992 291.671 156.896C289.665 156.73 288.147 157.26 286.174 156.707Z" fill="#3F3D56"/>
<path d="M289.308 145.802C289.048 145.78 288.727 145.762 288.592 145.985C288.464 146.199 288.611 146.481 288.542 146.72C288.447 147.047 288.019 147.131 287.681 147.086C287.344 147.042 286.979 146.935 286.68 147.098C286.528 147.201 286.414 147.351 286.355 147.525C286.296 147.699 286.295 147.887 286.352 148.062C286.474 148.409 286.672 148.724 286.93 148.985C287.373 149.542 287.877 150.048 288.432 150.491C289.508 151.286 290.966 151.668 291.644 152.821C291.74 153.045 291.886 153.243 292.073 153.399C292.398 153.605 292.823 153.448 293.173 153.288L294.401 152.727C294.622 152.647 294.819 152.513 294.975 152.337C295.255 151.956 295.083 151.415 294.847 151.005C294.612 150.595 294.311 150.17 294.361 149.7C294.451 148.862 295.529 148.541 295.972 147.824C296.419 147.101 296.128 146.17 296.18 145.321C296.24 144.329 296.863 143.039 295.86 142.298C295.008 141.668 294.193 142.25 293.581 142.945C292.291 144.412 291.681 146 289.308 145.802Z" fill="#3F3D56"/>
<path d="M296.763 130.981C297.182 131.783 298.056 132.262 298.513 133.044C299.009 133.891 298.952 134.986 299.49 135.807C300.041 136.65 301.151 137.097 301.461 138.055C301.798 139.102 301.032 140.373 301.643 141.287C301.757 141.437 301.9 141.561 302.065 141.652C302.229 141.743 302.411 141.799 302.598 141.816C302.785 141.833 302.973 141.811 303.152 141.752C303.33 141.692 303.494 141.597 303.633 141.47C303.89 141.19 304.028 140.82 304.017 140.44C304.006 140.059 303.846 139.698 303.573 139.434C303.211 139.104 302.692 138.961 302.39 138.576C302.233 138.354 302.128 138.099 302.084 137.831C301.919 137.056 301.945 136.253 302.161 135.49C302.241 135.297 302.262 135.084 302.219 134.878C302.083 134.483 301.548 134.455 301.173 134.272C300.32 133.856 300.341 132.652 300.49 131.715C300.391 132.339 298.168 131.278 297.936 130.924C297.473 130.222 297.725 128.868 297.633 128.092C296.635 128.573 296.25 129.999 296.763 130.981Z" fill="#3F3D56"/>
<path d="M274.373 143.33C273.962 142.871 273.344 142.39 272.795 142.667C272.375 142.879 272.26 143.459 272.424 143.899C272.624 144.326 272.933 144.694 273.319 144.966C274.465 145.911 275.699 146.764 276.699 147.863C278.488 149.829 279.436 152.482 281.382 154.293C281.773 154.713 282.291 154.994 282.856 155.091C283.423 155.144 284.06 154.781 284.125 154.216C284.178 153.75 283.854 153.333 283.536 152.987C282.78 152.165 281.953 151.408 281.239 150.549C280.91 150.219 280.702 149.787 280.652 149.323C280.648 148.861 281.07 148.376 281.518 148.491C280.973 148.352 280.569 147.444 279.769 147.273C279.101 147.13 278.939 147.544 278.143 147.203C276.626 146.552 275.435 144.52 274.373 143.33Z" fill="#3F3D56"/>
<path d="M310.029 98.6166C309.594 98.4873 309.166 98.3344 308.747 98.1587C307.62 97.8205 306.13 98.6486 306.28 99.8154C306.38 100.591 307.101 101.113 307.499 101.786C308.09 102.783 307.933 104.048 307.622 105.164C307.546 105.51 307.401 105.837 307.196 106.126C306.909 106.431 306.566 106.677 306.186 106.852C304.665 107.705 303.323 108.845 302.235 110.209C302.117 110.335 302.034 110.49 301.996 110.659C301.943 111.053 302.339 111.34 302.562 111.668C303.06 112.398 302.7 113.38 302.749 114.262C302.742 114.387 302.766 114.511 302.82 114.624C302.874 114.736 302.956 114.833 303.058 114.905C303.358 115.058 303.713 114.799 303.876 114.505C304.415 113.528 304.009 111.96 305.02 111.489C305.212 111.4 305.444 111.362 305.571 111.194C305.774 110.928 305.578 110.533 305.681 110.214C305.835 109.736 306.489 109.714 306.992 109.736C307.857 109.772 308.722 109.657 309.547 109.395C309.871 109.318 310.165 109.148 310.393 108.906C310.695 108.528 310.669 107.992 310.608 107.512C310.306 105.12 309.548 102.809 308.376 100.702C309.265 100.815 310.231 100.914 310.998 100.45C311.427 100.191 311.942 99.4159 311.729 98.8881C311.392 98.0536 310.784 98.7562 310.029 98.6166Z" fill="#3F3D56"/>
<path d="M196.128 111.771C196.235 112.342 196.339 112.942 196.152 113.491C195.965 114.04 195.378 114.499 194.822 114.331C194.392 114.2 194.143 113.767 193.837 113.437C192.135 111.6 188.297 112.664 187.246 110.392C186.817 109.464 187.109 108.353 186.816 107.374C186.632 106.809 186.264 106.32 185.772 105.986C185.28 105.651 184.69 105.49 184.096 105.527C183.555 105.605 183.027 105.762 182.531 105.994C179.208 107.325 175.72 108.197 172.162 108.587C171.486 108.629 170.817 108.75 170.169 108.95C168.708 109.48 167.71 110.834 167 112.216C166.289 113.598 165.765 115.095 164.813 116.323C163.812 117.613 162.409 118.517 161.1 119.494C160.596 119.819 160.177 120.259 159.876 120.778C159.592 121.36 159.608 122.037 159.63 122.685L159.898 130.548C159.932 131.559 159.975 132.607 160.428 133.512C160.993 134.642 162.11 135.382 162.884 136.381C163.675 137.407 164.087 138.674 164.05 139.969C164.034 140.49 163.982 141.105 164.387 141.432C164.634 141.592 164.922 141.675 165.216 141.671L175.853 142.541C177.724 142.694 179.797 142.946 181.019 144.371C181.595 145.044 182.058 146.012 182.941 146.084C183.32 146.115 183.689 145.959 184.067 145.929C185.023 145.854 185.863 146.579 186.393 147.378C187.195 148.596 187.559 150.05 187.425 151.502C187.338 152.414 187.056 153.3 186.995 154.213C186.763 157.69 189.71 160.71 189.767 164.193C189.801 166.242 188.828 168.157 187.88 169.973C189.41 172.292 188.157 175.38 188.766 178.09C189.344 180.662 191.488 182.675 192.023 185.256C192.267 186.438 192.281 187.892 193.323 188.501C193.781 188.724 194.288 188.825 194.795 188.795C197.858 188.832 200.886 188.142 203.631 186.784C204.919 186.145 206.255 185.19 206.48 183.77C206.661 182.624 206.08 181.342 206.671 180.344C207.368 179.168 209.153 179.262 210.179 178.357C211.842 176.89 210.545 174.093 211.219 171.98C211.825 170.08 213.91 169.071 214.944 167.367C215.35 166.634 215.642 165.843 215.809 165.021C216.283 163.057 216.578 161.055 216.69 159.038C216.717 157.813 216.808 156.589 216.961 155.373C218.075 148.449 224.92 143.813 227.142 137.162C227.355 136.527 227.454 135.68 226.889 135.321C226.554 135.161 226.174 135.121 225.813 135.208L220.91 135.826C220.301 135.903 219.655 135.975 219.096 135.722C218.537 135.469 218.136 134.762 218.433 134.224C219.265 132.716 217.552 130.81 216.791 129.264C214.742 125.101 212.301 121.143 209.502 117.443C209.323 117.252 209.211 117.009 209.183 116.749L210.574 116.795C210.104 115.11 209.329 113.265 207.692 112.649C206.769 112.301 205.747 112.421 204.763 112.475C201.943 112.629 198.92 112.203 196.128 111.772V111.771Z" fill="#3F3D56"/>
<path d="M204.767 73.7893C205.505 74.573 206.332 75.4038 207.399 75.5404C209.285 75.7816 210.641 73.8316 211.504 72.1376C211.536 72.5694 211.735 72.9717 212.059 73.259C212.383 73.5462 212.807 73.6957 213.239 73.6757C213.705 73.5974 214.149 73.4237 214.544 73.1656C218.281 71.1238 222.466 70.042 226.723 70.0173C226.682 69.6948 226.762 69.3685 226.948 69.1015C227.133 68.8345 227.411 68.6457 227.728 68.5714C228.593 68.3998 229.373 69.1482 229.791 69.9257C230.208 70.7031 230.469 71.6043 231.132 72.1863C231.796 72.7682 233.08 72.7429 233.342 71.9001C233.594 71.0911 232.751 70.4011 232.051 69.9241C231.351 69.4472 230.613 68.5643 231.084 67.8604C234.661 67.0685 238.261 66.2736 241.922 66.1162C242.545 66.1379 243.166 66.0309 243.746 65.8019C244.305 65.528 244.748 64.9061 244.598 64.3027C243.799 64.4904 242.963 64.436 242.195 64.1464C241.427 63.8568 240.763 63.3451 240.287 62.6765C245.367 62.2574 250.769 61.9001 255.271 64.2902C255.811 65.4498 253.058 66.4146 253.794 67.4607C254.029 67.7943 254.5 67.8334 254.908 67.8409C258.036 67.899 261.182 67.956 264.275 67.4837C265.406 67.3111 266.547 67.0675 267.682 67.2074C269.572 67.4405 271.189 68.7017 273.048 69.1128C273.805 69.2802 274.654 69.2859 275.292 68.8457C275.93 68.4055 276.204 67.4031 275.681 66.8309C277.432 65.115 280.338 65.5402 282.647 66.3618C284.957 67.1833 287.145 68.508 289.59 68.6912C291.343 68.8225 293.12 68.351 294.852 68.6507C295.941 68.839 296.954 69.3233 298.018 69.6208C300.03 70.1835 302.159 70.0647 304.248 70.0917C309.578 70.1636 314.85 71.2112 319.803 73.1829C320.448 73.3926 321.038 73.7414 321.533 74.2045C321.993 74.698 322.229 75.4649 321.919 76.065L316.801 75.3171C317.283 76.2664 318.53 76.4282 319.544 76.7557C320.557 77.0831 321.607 78.202 320.998 79.0754C319.901 78.7259 318.906 79.8234 318.351 80.8332C317.797 81.8429 317.121 83.0523 315.971 83.1138C314.941 83.1689 313.695 82.2917 313.023 83.0749C313.951 84.2452 314.745 85.5152 315.392 86.8614C316.055 88.2434 316.528 89.9847 315.631 91.2281C315.49 91.4501 315.276 91.616 315.026 91.6974C314.294 91.8828 313.818 90.987 313.293 90.444C312.631 89.7598 311.63 89.566 310.734 89.2451C309.838 88.9243 308.894 88.2931 308.824 87.3438C308.78 86.7532 309.092 86.2042 309.322 85.6583C309.708 84.7382 309.877 83.7416 309.815 82.7457C309.765 81.9445 309.54 81.1111 308.965 80.5513C308.389 79.9915 307.396 79.8139 306.778 80.3266C306.49 80.5659 306.259 80.9486 305.885 80.9628C305.223 80.9881 304.716 79.8351 304.183 80.2287C304.246 80.6481 304.159 81.0761 303.938 81.4378C302.35 82.8188 299.911 82.2345 297.864 82.7223C296.891 83.0009 295.959 83.4079 295.093 83.9326C294.769 84.0711 294.493 84.3024 294.301 84.5974C294.045 85.094 294.327 85.7299 294.777 86.06C295.255 86.3529 295.792 86.5361 296.349 86.5964C298.844 87.069 301.376 87.8006 303.346 89.4035C305.316 91.0063 306.608 93.656 305.985 96.1182L301.063 91.4158C301.25 93.3902 301.356 95.37 301.382 97.3552C301.414 97.7428 301.36 98.1327 301.226 98.4976C300.875 99.2725 299.924 99.5333 299.091 99.7043C298.859 99.7484 298.639 99.8409 298.446 99.976C298.252 100.111 298.09 100.285 297.968 100.488C297.847 100.69 297.77 100.916 297.742 101.15C297.714 101.384 297.736 101.622 297.807 101.847C298.103 102.812 298.841 103.564 299.517 104.314C300.193 105.063 300.858 105.915 300.947 106.921C301.035 107.926 300.276 109.06 299.27 108.99C298.506 108.937 297.94 108.253 297.614 107.561C297.289 106.869 297.095 106.097 296.606 105.509C295.125 103.728 291.799 104.491 290.473 102.593C290.135 102.976 289.9 103.44 289.792 103.939C289.683 104.439 289.704 104.958 289.853 105.447C290.47 105.061 291.315 105.42 291.778 105.981C292.242 106.543 292.461 107.262 292.825 107.893C293.316 108.743 294.098 109.498 294.166 110.478C294.148 110.848 294.155 111.219 294.185 111.589C294.307 112.183 294.809 112.609 295.157 113.106C295.967 114.261 295.927 115.847 295.405 117.158C294.883 118.468 293.945 119.563 293.016 120.624C291.394 122.479 289.739 124.322 287.816 125.862C287.267 126.301 286.682 126.733 286.34 127.347C285.998 127.962 285.981 128.824 286.506 129.291C286.13 129.31 285.456 129.495 285.08 129.514C284.948 128.006 284.92 126.492 284.994 124.98C283.512 124.268 281.915 126.175 282.106 127.809C282.298 129.443 283.479 130.754 284.321 132.167C284.936 133.201 285.393 134.406 285.188 135.592C284.982 136.777 283.924 137.87 282.726 137.766C280.82 137.6 280.022 134.863 278.135 134.55C277.968 134.511 277.794 134.528 277.638 134.599C277.358 134.753 277.309 135.128 277.293 135.447C277.216 137.014 277.149 138.643 277.761 140.088C278.656 142.201 280.967 143.976 280.482 146.219C277.87 145.005 276.512 142.076 275.895 139.262C275.278 136.448 275.176 133.494 274.07 130.834C273.231 131.91 271.467 131.021 270.7 129.892C269.973 128.822 269.525 127.585 268.82 126.5C268.114 125.416 267.034 124.445 265.742 124.385C264.387 124.323 263.212 125.253 262.178 126.131C261.328 126.853 260.456 127.604 259.959 128.603C259.237 130.056 259.426 131.769 259.391 133.392C259.353 135.146 258.981 136.997 257.786 138.281C256.59 139.565 254.384 140.012 253.065 138.855C252.376 138.251 252.043 137.348 251.746 136.481C250.315 132.304 249.123 128.049 248.176 123.736C247.955 124.721 247.09 125.989 246.264 125.41C246.079 125.254 245.929 125.06 245.824 124.842C244.284 122.232 241.431 120.666 238.549 119.727C235.667 118.788 232.635 118.35 229.785 117.318C228.188 116.74 226.663 115.98 225.239 115.054C224.876 115.587 224.664 116.208 224.626 116.852C224.587 117.496 224.724 118.139 225.021 118.711C225.653 119.831 227.083 120.478 228.308 120.087C228.941 119.885 229.475 119.446 230.103 119.229C230.731 119.012 231.574 119.118 231.848 119.723C232.111 120.302 231.714 121.003 231.911 121.607C232.211 122.528 233.6 122.599 234.086 123.437C234.447 124.06 234.15 124.888 233.634 125.391C233.118 125.895 232.43 126.17 231.8 126.521C229.756 127.657 228.303 129.597 226.517 131.106C224.731 132.615 222.212 133.717 220.083 132.749C220.591 130.18 217.531 128.294 216.968 125.737C216.782 124.895 216.878 124.001 216.614 123.181C216.231 121.993 215.177 121.177 214.313 120.277C213.264 119.173 212.448 117.871 211.911 116.447C211.374 115.022 211.128 113.505 211.187 111.984C211.233 110.927 211.427 109.853 211.187 108.823C210.946 107.793 210.093 106.796 209.036 106.843C206.622 106.949 203.581 107.129 202.314 105.071C201.862 104.337 201.666 103.261 202.319 102.698C202.78 102.301 203.461 102.339 204.066 102.398L209.505 102.933C210.777 103.058 212.152 103.162 213.244 102.497C214.335 101.832 214.809 100.066 213.798 99.284C213.059 98.7123 211.736 98.7433 211.521 97.8344C211.342 97.0774 212.18 96.2184 211.728 95.5858C211.403 95.1322 210.674 95.258 210.232 95.5981C209.79 95.9381 209.469 96.4354 208.974 96.6929C208.106 97.1446 207.069 96.7147 206.136 96.4225C205.202 96.1304 203.95 96.1056 203.497 96.9728C202.991 97.9427 203.946 99.2136 203.444 100.185C202.779 101.47 200.529 100.739 199.595 101.844C198.524 103.112 200.324 105.004 199.963 106.624C199.502 106.852 198.989 106.957 198.475 106.928C197.962 106.899 197.464 106.738 197.032 106.459C196.606 106.17 196.267 105.77 196.05 105.304C195.834 104.837 195.747 104.32 195.801 103.808C195.891 103.079 196.271 102.335 196.016 101.647C195.81 101.09 195.251 100.758 194.731 100.471L189.446 97.5504C188.955 98.4607 189.576 99.5892 190.351 100.273C191.127 100.957 192.099 101.472 192.609 102.371C192.931 102.995 193.004 103.718 192.811 104.393C192.618 105.068 192.175 105.644 191.572 106.003C191.497 106.055 191.411 106.09 191.32 106.106C191.23 106.122 191.137 106.118 191.048 106.094C190.964 106.045 190.891 105.979 190.832 105.9C190.774 105.822 190.732 105.732 190.709 105.637C189.776 103.251 188.376 100.898 186.137 99.6514C183.899 98.4048 180.682 98.6611 179.215 100.761C178.866 101.26 178.632 101.829 178.328 102.356C176.715 105.158 173.255 106.485 170.023 106.398C169.707 106.415 169.392 106.341 169.117 106.185C168.594 105.824 168.618 105.059 168.698 104.429L169.037 101.756C169.105 101.22 169.204 100.626 169.629 100.291C170.228 99.8191 171.091 100.117 171.854 100.106C172.432 100.079 172.987 99.875 173.445 99.5217C173.903 99.1683 174.241 98.6828 174.413 98.1308C174.567 97.5734 174.566 96.9845 174.411 96.4276C174.255 95.8707 173.95 95.367 173.529 94.9705C173.179 94.6423 172.71 94.2299 172.895 93.7874C172.968 93.665 173.068 93.5603 173.186 93.4805C173.305 93.4007 173.439 93.3478 173.581 93.3256C174.95 92.9278 176.398 92.8236 177.744 92.3543C179.091 91.8849 180.397 90.9247 180.716 89.5346C180.814 89.1086 180.859 88.5925 181.241 88.3813C181.433 88.3002 181.639 88.2581 181.848 88.2574C182.578 88.1534 183.243 87.7799 183.712 87.2104C184.18 86.6409 184.419 85.9165 184.38 85.18C185.025 84.729 185.93 85.0607 186.554 85.5405C187.179 86.0202 187.73 86.654 188.49 86.8608C189.906 87.2462 191.274 85.9925 192.742 85.9866C193.359 85.9842 193.998 86.2024 194.578 85.9932C195.167 85.7811 195.518 85.1952 195.97 84.7623C196.422 84.3295 197.214 84.0655 197.632 84.5318L197.276 81.9008C197.992 82.0815 198.737 82.1071 199.463 81.9759C200.189 81.8446 200.879 81.5596 201.486 81.1398L196.895 79.5887C196.735 79.5488 196.588 79.47 196.466 79.3592C196.132 78.9998 196.464 78.4398 196.735 78.0313C197.384 77.054 197.493 75.4442 196.426 74.9578C195.697 74.6257 194.86 75.0243 194.161 75.4143L190.81 77.2825C190.704 77.9194 191.483 78.2803 191.965 78.7093C192.257 78.9689 192.464 79.3107 192.558 79.6898C192.652 80.069 192.63 80.4678 192.493 80.8338C192.356 81.1998 192.112 81.516 191.793 81.7407C191.473 81.9654 191.093 82.0883 190.702 82.093C190.923 82.3799 191.076 82.7127 191.151 83.0668C191.226 83.4209 191.22 83.7873 191.133 84.1388L188.879 84.3009C188.626 84.3518 188.363 84.3005 188.148 84.1582C187.907 83.944 187.939 83.5688 187.884 83.2512C187.749 82.4847 186.998 81.9474 186.232 81.8096C185.466 81.6719 184.682 81.8485 183.924 82.0228C183.602 82.1387 183.248 82.1306 182.932 81.9999C182.75 81.8821 182.612 81.7081 182.539 81.5045C182.207 80.6982 182.517 79.7504 183.052 79.0609C183.586 78.3713 184.317 77.8672 184.973 77.2932C186.544 75.9153 187.697 74.1258 188.304 72.1268C189.545 71.6068 190.83 70.9003 192.071 70.3804C193.984 69.4117 196.13 68.996 198.267 69.18L202.469 69.2603C203.714 69.284 204.992 69.3145 206.142 69.7888C207.293 70.2632 208.304 71.2892 208.383 72.5312C208.407 72.6718 208.395 72.8162 208.348 72.9508C208.301 73.0854 208.22 73.2058 208.114 73.3008C207.951 73.3895 207.767 73.431 207.582 73.4206C206.422 73.4613 205.927 73.7505 204.767 73.7913L204.767 73.7893Z" fill="#3F3D56"/>
<path d="M171.269 86.9587C171.433 86.8033 171.551 86.6056 171.61 86.3874C171.67 86.1692 171.667 85.939 171.604 85.7219C171.205 85.5677 170.77 85.5281 170.349 85.6076C169.928 85.687 169.538 85.8824 169.222 86.1717C168.973 86.4235 168.759 86.7072 168.584 87.0153C168.032 87.9163 167.543 88.9925 167.863 89.9998C167.89 90.1096 167.937 90.2131 168.004 90.3043C168.071 90.3954 168.155 90.4723 168.251 90.5305C168.395 90.588 168.549 90.6123 168.704 90.6013C169.312 90.6005 169.92 90.5631 170.524 90.4893C170.895 90.4439 171.325 90.3392 171.469 89.9942C171.657 89.5406 171.201 89.0274 171.334 88.5546C171.421 88.3431 171.554 88.1533 171.722 87.9984C171.806 87.9204 171.87 87.824 171.91 87.7168C171.95 87.6097 171.964 87.4948 171.951 87.3812C171.898 87.1593 171.558 87.0335 171.436 87.2262" fill="#3F3D56"/>
<path d="M174.424 82.8696C173.883 82.7455 173.326 82.7105 172.774 82.7661C172.652 82.7624 172.531 82.7899 172.423 82.8459C172.318 82.9234 172.242 83.0338 172.206 83.1595C172.09 83.5336 172.118 83.9378 172.286 84.2916C172.455 84.6455 172.75 84.923 173.113 85.0689C173.312 85.1145 173.501 85.1908 173.676 85.295C174.142 85.6569 173.845 86.3967 173.933 86.9804C174.032 87.6359 174.667 88.1862 174.551 88.8389C174.459 89.3531 173.91 89.7602 173.998 90.275C174.091 90.8142 174.775 90.9762 175.32 91.0194C175.636 91.0747 175.962 91.0375 176.257 90.912C176.553 90.7096 176.764 90.4047 176.848 90.0562C177.071 89.3916 177.165 88.6904 177.124 87.9905C177.122 87.6722 177.042 87.3593 176.891 87.0788C176.727 86.8566 176.545 86.6482 176.347 86.4555C175.302 85.2402 176.402 83.4273 174.424 82.8696Z" fill="#3F3D56"/>
<path opacity="0.8" d="M311.828 178.075C311.828 178.075 231.803 132.141 197.35 140.843C197.35 140.843 124.335 148.701 115.875 165.987C115.875 165.987 92.6656 93.4585 84.2053 91.0391" stroke="#FF6347" stroke-width="0.585827" stroke-miterlimit="10"/>
<path opacity="0.8" d="M115.867 165.99C129.285 130.207 250.169 90.5586 250.169 90.5586C233.003 94.9104 197.341 140.846 197.341 140.846C197.341 140.846 121.91 85.9657 84.1936 91.0419C84.1936 91.0419 250.289 96.4816 311.819 178.078" stroke="#FF6347" stroke-width="0.585827" stroke-miterlimit="10"/>
<path d="M84.1927 94.5478C86.1288 94.5478 87.6983 92.9783 87.6983 91.0422C87.6983 89.1061 86.1288 87.5366 84.1927 87.5366C82.2566 87.5366 80.6871 89.1061 80.6871 91.0422C80.6871 92.9783 82.2566 94.5478 84.1927 94.5478Z" fill="#FF6347"/>
<path d="M115.866 169.496C117.802 169.496 119.371 167.926 119.371 165.99C119.371 164.054 117.802 162.484 115.866 162.484C113.93 162.484 112.36 164.054 112.36 165.99C112.36 167.926 113.93 169.496 115.866 169.496Z" fill="#FF6347"/>
<path d="M250.168 94.0645C252.104 94.0645 253.674 92.495 253.674 90.5589C253.674 88.6228 252.104 87.0533 250.168 87.0533C248.232 87.0533 246.662 88.6228 246.662 90.5589C246.662 92.495 248.232 94.0645 250.168 94.0645Z" fill="#FF6347"/>
<path d="M311.818 181.581C313.754 181.581 315.324 180.012 315.324 178.076C315.324 176.14 313.754 174.57 311.818 174.57C309.882 174.57 308.312 176.14 308.312 178.076C308.312 180.012 309.882 181.581 311.818 181.581Z" fill="#FF6347"/>
<path d="M197.34 144.352C199.276 144.352 200.846 142.782 200.846 140.846C200.846 138.91 199.276 137.341 197.34 137.341C195.404 137.341 193.835 138.91 193.835 140.846C193.835 142.782 195.404 144.352 197.34 144.352Z" fill="#FF6347"/>
</svg>
