<svg width="1921" height="126" viewBox="0 0 1921 126" fill="none" xmlns="http://www.w3.org/2000/svg">
<path d="M1920.76 93.4442C1845.45 67.1601 1790.75 49.8152 1756.65 41.4097C1679.94 22.4958 1609.5 15.4271 1559.19 10.7227C1506.77 5.82075 1392.99 6.01955 1307.03 10.7227C1272.68 12.6026 1229.98 17.0495 1178.95 24.0648C1127.08 31.786 1091.5 37.5685 1072.22 41.4097C1035.97 48.6278 971 63.7845 950.805 68.094C880.124 83.1827 828.786 98.4195 778.696 106.786C690.006 121.602 645.978 123.381 571.897 125.465C505.842 123.443 456.921 120.774 425.137 117.46C371.197 111.834 308.712 99.763 273.04 93.4442C205.836 81.5376 114.667 58.4116 -0.467529 24.0648V-18.6301H1920.76V93.4442Z" fill="#F8FAFC"/>
</svg>
