<svg width="465" height="257" viewBox="0 0 465 257" fill="none" xmlns="http://www.w3.org/2000/svg">
<g clip-path="url(#clip0_1_173)">
<path d="M104.544 148.154L102.064 146.613C101.827 146.467 101.595 146.309 101.358 146.159C106.636 145.251 111.447 142.576 115.003 138.571C118.558 134.567 120.646 129.473 120.924 124.125C121.201 118.778 119.652 113.495 116.53 109.144C113.407 104.793 108.898 101.634 103.743 100.185L103.866 109.907L98.5238 99.3295H98.4568C92.2059 99.0394 86.0956 101.244 81.4694 105.457C76.8431 109.671 74.0796 115.549 73.7863 121.8C73.7627 122.254 73.7863 122.695 73.7863 123.141C71.9295 121.02 70.2383 118.745 69.1227 116.254C66.8638 111.211 66.8204 105.499 66.9978 98.5529C67.3526 84.7945 67.9479 70.9258 68.7206 57.1044C74.2986 56.4833 79.4727 53.8942 83.3136 49.8018C87.1546 45.7094 89.4109 40.3818 89.6774 34.7756C89.709 34.0542 89.6774 33.3446 89.6774 32.635C89.6774 32.4576 89.6774 32.2841 89.6498 32.1067C89.6025 31.4208 89.5395 30.7427 89.433 30.0725C89.433 29.9621 89.3936 29.8557 89.3739 29.7493C89.2793 29.1816 89.161 28.6218 89.027 28.0699C88.9757 27.8609 88.9245 27.6756 88.8693 27.4509C88.7037 26.8478 88.5224 26.2683 88.3095 25.6691C88.2385 25.4759 88.1557 25.2748 88.0808 25.0935C87.9153 24.6638 87.7339 24.238 87.5407 23.8201C87.4383 23.5994 87.3397 23.3786 87.2333 23.1618C87.2017 23.1066 87.182 23.0475 87.1505 22.9923C84.6588 18.0741 80.5232 14.184 75.4619 11.9976C70.4006 9.81122 64.7334 9.46662 59.4445 11.0237L59.6022 23.6782L54.3196 13.2234C49.9796 15.711 46.5472 19.5194 44.5227 24.0939C42.4983 28.6683 41.9874 33.7697 43.0646 38.6547H43.0409C43.0764 38.8243 43.1276 38.9859 43.1671 39.1515C43.242 39.4629 43.3208 39.7704 43.4075 40.0779C43.5179 40.4721 43.6441 40.8663 43.7742 41.2606C43.8727 41.5523 43.9673 41.8401 44.0777 42.1278C44.2393 42.5457 44.4207 42.9518 44.602 43.3578C44.7085 43.5943 44.8031 43.8388 44.9174 44.0714C45.217 44.6837 45.5429 45.279 45.8951 45.8572C46.0173 46.0622 46.1553 46.2514 46.2893 46.4525C46.5416 46.8467 46.7939 47.2409 47.0777 47.6075C47.2473 47.8401 47.4286 48.0648 47.606 48.2895C47.8662 48.6167 48.1303 48.94 48.3944 49.2514C48.5876 49.4761 48.7887 49.693 48.9897 49.9059C49.2815 50.2133 49.5771 50.509 49.8846 50.7968C50.0896 50.99 50.2788 51.191 50.5035 51.3724C50.8505 51.6838 51.2131 51.9755 51.5798 52.2633C51.7651 52.4092 51.9464 52.559 52.1356 52.7009C52.6954 53.0951 53.271 53.4893 53.8663 53.8836C53.9766 53.9506 54.0989 54.0058 54.2092 54.0728C54.7099 54.3645 55.2145 54.6444 55.7349 54.8967C55.9596 55.0071 56.1882 55.1057 56.4169 55.2081C56.8426 55.3974 57.2723 55.5827 57.7139 55.7522L58.5023 56.0281C58.936 56.174 59.3775 56.312 59.823 56.4224C60.0832 56.4933 60.3473 56.5682 60.6114 56.6313C61.0924 56.7456 61.5851 56.8402 62.0819 56.927L62.1765 56.9467C61.8532 62.7785 61.5641 68.6117 61.3092 74.4462C59.9032 71.557 57.9216 68.9855 55.4861 66.8895C53.0506 64.7935 50.2126 63.2173 47.146 62.2575C44.0795 61.2977 40.8492 60.9746 37.6534 61.308C34.4575 61.6415 31.3635 62.6244 28.5611 64.1964L32.732 75.6289L24.1498 67.3896C19.5488 71.5968 16.8064 77.4586 16.5255 83.6868C16.4041 85.8749 16.5953 88.0691 17.0932 90.2033C18.1723 94.8059 20.6095 98.9782 24.0885 102.179C27.5676 105.38 31.9281 107.461 36.6046 108.154C41.281 108.847 46.0577 108.118 50.3152 106.063C54.5726 104.008 58.1144 100.721 60.4813 96.6291C60.4813 97.2204 60.4419 97.8118 60.4261 98.4071C60.2684 104.533 60.0713 112.158 63.1266 118.966C65.1962 123.578 68.5235 127.327 71.7994 130.686C73.9401 132.87 76.1595 134.987 78.4342 137.033C80.6737 140.039 83.5948 142.471 86.9573 144.129C90.6945 147.007 94.5658 149.715 98.5672 152.214L101.067 153.768C103.314 155.159 105.616 156.59 107.871 158.077C107.477 158.037 107.082 157.994 106.688 157.974C101.685 157.741 96.7376 159.105 92.5608 161.869C88.3839 164.632 85.1942 168.653 83.4527 173.349L98.1966 185.345L81.9783 181.584C81.9826 185.575 82.9984 189.499 84.9307 192.991C86.863 196.482 89.6487 199.427 93.0277 201.55C96.4067 203.673 100.269 204.905 104.253 205.13C108.237 205.356 112.213 204.568 115.81 202.841L114.715 204.201C113.989 205.102 113.273 205.998 112.566 206.889C102.971 219.043 100.302 230.578 105.052 239.373L110.831 236.255C106.207 227.692 113.161 216.733 117.718 210.962C118.412 210.086 119.117 209.206 119.832 208.32C125.962 200.704 132.908 192.07 132.738 181.482C132.49 165.5 116.993 155.881 104.544 148.154Z" fill="#F2F2F2"/>
<path d="M232.812 246.02C360.942 246.02 464.812 242.313 464.812 237.741C464.812 233.169 360.942 229.462 232.812 229.462C104.682 229.462 0.811768 233.169 0.811768 237.741C0.811768 242.313 104.682 246.02 232.812 246.02Z" fill="#3F3D56"/>
<path d="M43.5455 235.049C42.3628 232.876 43.7032 230.211 45.2367 228.276C46.7702 226.34 48.631 224.334 48.5915 221.854C48.5324 218.306 44.7676 216.213 41.7597 214.328C39.5262 212.934 37.4669 211.278 35.6256 209.397C34.8515 208.68 34.2096 207.832 33.7293 206.893C33.1065 205.506 33.1222 203.929 33.1617 202.411C33.2957 197.349 33.5467 192.291 33.9146 187.237" stroke="#3F3D56" stroke-width="1.57689" stroke-miterlimit="10"/>
<path d="M28.2103 186.942C28.2522 186.015 28.527 185.114 29.0093 184.321C29.4916 183.529 30.1659 182.871 30.9698 182.408L32.2077 184.86L32.1683 181.892C32.7604 181.718 33.3771 181.644 33.9935 181.671C35.0826 181.724 36.1315 182.099 37.0079 182.748C37.8843 183.396 38.5489 184.29 38.9178 185.316C39.2866 186.342 39.3433 187.455 39.0806 188.513C38.8179 189.571 38.2477 190.528 37.4418 191.263C36.6358 191.997 35.6304 192.476 34.5524 192.64C33.4743 192.804 32.372 192.644 31.3844 192.182C30.3968 191.72 29.5683 190.975 29.0034 190.043C28.4385 189.11 28.1625 188.031 28.2103 186.942Z" fill="#57B894"/>
<path d="M38.0658 224.389C38.6462 225.514 39.5955 226.405 40.7548 226.913C41.914 227.421 43.2127 227.515 44.4332 227.18C45.6537 226.845 46.7218 226.1 47.4585 225.071C48.1952 224.041 48.5558 222.79 48.4797 221.527C48.4037 220.263 47.8957 219.064 47.0409 218.131C46.1861 217.197 45.0364 216.586 43.7845 216.399C42.5326 216.213 41.2545 216.462 40.1646 217.106C39.0747 217.749 38.239 218.748 37.7977 219.934L41.2551 222.745L37.4587 221.874C37.4589 222.748 37.667 223.61 38.0658 224.389Z" fill="#57B894"/>
<path d="M40.8254 213.646C42.2001 213.743 43.5614 213.323 44.6416 212.467C45.7218 211.611 46.4427 210.382 46.6626 209.022C46.8826 207.661 46.5855 206.268 45.83 205.115C45.0744 203.962 43.915 203.134 42.5797 202.793L42.6112 205.072L41.3576 202.592C40.6316 202.557 39.9059 202.665 39.2219 202.911C38.5379 203.156 37.9092 203.535 37.3718 204.024C36.8345 204.514 36.3991 205.104 36.0906 205.762C35.7821 206.42 35.6067 207.133 35.5743 207.859C35.5419 208.498 35.622 209.137 35.8109 209.747C36.1433 210.835 36.8035 211.793 37.701 212.491C38.5986 213.188 39.6897 213.592 40.8254 213.646Z" fill="#57B894"/>
<path d="M27.3745 204.709C28.2238 204.74 29.0688 204.575 29.8437 204.226C30.6186 203.877 31.3024 203.354 31.8419 202.697C32.3813 202.04 32.7618 201.268 32.9538 200.44C33.1457 199.612 33.1438 198.751 32.9483 197.924C32.7528 197.097 32.3689 196.326 31.8266 195.672C31.2843 195.018 30.5982 194.497 29.8218 194.152C29.0454 193.806 28.1997 193.644 27.3505 193.679C26.5014 193.714 25.6718 193.945 24.9264 194.353L25.904 197.034L23.8935 195.102C22.8161 196.089 22.1739 197.462 22.1077 198.922C22.0814 199.435 22.1279 199.948 22.2457 200.448C22.5188 201.62 23.1678 202.671 24.0937 203.441C25.0197 204.21 26.1718 204.655 27.3745 204.709Z" fill="#57B894"/>
<path opacity="0.1" d="M28.9514 188.416C30.2287 188.554 31.4705 188.952 32.7517 189.031C34.0329 189.11 35.4403 188.806 36.2524 187.809C36.686 187.273 36.9068 186.595 37.2734 186.007C37.6236 185.462 38.1029 185.011 38.669 184.695C39.0036 185.393 39.1876 186.153 39.2091 186.927C39.2306 187.701 39.0892 188.47 38.7938 189.186C38.4985 189.901 38.056 190.547 37.495 191.08C36.934 191.614 36.2671 192.023 35.5376 192.282C34.8081 192.541 34.0323 192.643 33.2606 192.583C32.4889 192.522 31.7386 192.3 31.0583 191.93C30.3781 191.561 29.7832 191.053 29.3122 190.438C28.8412 189.824 28.5047 189.118 28.3246 188.365C28.5322 188.365 28.7411 188.382 28.9514 188.416Z" fill="black"/>
<path opacity="0.1" d="M27.3745 204.709C28.3287 204.758 29.2791 204.558 30.1328 204.128C30.9865 203.699 31.7141 203.056 32.2446 202.261C32.775 201.467 33.0901 200.548 33.1589 199.595C33.2278 198.642 33.0481 197.687 32.6374 196.825C32.1984 197.12 31.8208 197.498 31.5257 197.937C31.1314 198.532 30.891 199.222 30.4297 199.766C29.5664 200.779 28.0959 201.11 26.7595 201.051C25.4231 200.992 24.134 200.609 22.8173 200.487C22.632 200.487 22.4467 200.46 22.2575 200.456C22.5315 201.625 23.1794 202.673 24.1029 203.44C25.0263 204.208 26.1749 204.653 27.3745 204.709Z" fill="black"/>
<path opacity="0.1" d="M40.8254 213.646C41.7707 213.694 42.7125 213.498 43.5602 213.077C44.4079 212.656 45.133 212.024 45.6659 211.241C46.1987 210.459 46.5215 209.553 46.603 208.61C46.6846 207.667 46.5223 206.719 46.1316 205.856C45.6726 206.156 45.2719 206.537 44.9489 206.98C44.5192 207.587 44.2512 208.289 43.7663 208.849C42.832 209.885 41.263 210.252 39.8516 210.22C38.4403 210.189 37.1591 209.854 35.799 209.747C36.1322 210.836 36.7941 211.796 37.694 212.494C38.5939 213.192 39.6877 213.594 40.8254 213.646Z" fill="black"/>
<path opacity="0.1" d="M38.0658 224.389C38.6644 225.727 39.7699 226.772 41.1391 227.295C42.5083 227.817 44.029 227.775 45.3668 227.176C46.7046 226.577 47.7498 225.472 48.2725 224.103C48.7952 222.734 48.7525 221.213 48.154 219.875C47.6973 220.174 47.288 220.539 46.9397 220.959C46.4115 221.598 46.0646 222.327 45.4575 222.93C44.3261 224.042 42.5008 224.507 40.8727 224.543C39.9348 224.547 38.9975 224.496 38.0658 224.389Z" fill="black"/>
<path d="M51.8912 232.545C51.8912 232.545 47.5232 232.411 46.2065 231.473C44.8898 230.535 39.5047 229.419 39.1657 230.921C38.8267 232.423 32.6019 238.411 37.5297 238.435C42.4574 238.459 48.9858 237.67 50.3025 236.858C51.6192 236.046 51.8912 232.545 51.8912 232.545Z" fill="#656380"/>
<path opacity="0.2" d="M37.4429 237.915C42.3747 237.954 48.899 237.126 50.2118 236.338C51.2131 235.727 51.6113 233.543 51.7453 232.533H51.8912C51.8912 232.533 51.6152 236.058 50.3143 236.87C49.0134 237.682 42.4732 238.474 37.5415 238.447C36.1183 238.447 35.6295 237.93 35.6571 237.181C35.8424 237.643 36.3825 237.903 37.4429 237.915Z" fill="black"/>
<path d="M389.153 53.9348H76.471C72.0251 53.9348 68.421 57.5389 68.421 61.9848V225.65C68.421 230.096 72.0251 233.7 76.471 233.7H389.153C393.598 233.7 397.203 230.096 397.203 225.65V61.9848C397.203 57.5389 393.598 53.9348 389.153 53.9348Z" fill="#F2F2F2"/>
<path d="M68.618 62.8048H174.27V233.897H76.6681C74.5331 233.897 72.4855 233.049 70.9758 231.54C69.4662 230.03 68.618 227.982 68.618 225.847V62.8048Z" fill="#FF6347"/>
<path d="M397.203 61.9848V66.5499H68.421V61.9848C68.421 59.8498 69.2691 57.8023 70.7788 56.2926C72.2884 54.7829 74.336 53.9348 76.471 53.9348H389.153C391.288 53.9348 393.335 54.7829 394.845 56.2926C396.354 57.8023 397.203 59.8498 397.203 61.9848Z" fill="#3F3D56"/>
<path d="M76.8967 62.8049C78.2031 62.8049 79.2621 61.7459 79.2621 60.4396C79.2621 59.1332 78.2031 58.0742 76.8967 58.0742C75.5904 58.0742 74.5314 59.1332 74.5314 60.4396C74.5314 61.7459 75.5904 62.8049 76.8967 62.8049Z" fill="#FF6347"/>
<path d="M82.8101 62.8049C84.1164 62.8049 85.1754 61.7459 85.1754 60.4396C85.1754 59.1332 84.1164 58.0742 82.8101 58.0742C81.5037 58.0742 80.4447 59.1332 80.4447 60.4396C80.4447 61.7459 81.5037 62.8049 82.8101 62.8049Z" fill="#FF6347"/>
<path d="M88.7234 62.8049C90.0298 62.8049 91.0888 61.7459 91.0888 60.4396C91.0888 59.1332 90.0298 58.0742 88.7234 58.0742C87.4171 58.0742 86.3581 59.1332 86.3581 60.4396C86.3581 61.7459 87.4171 62.8049 88.7234 62.8049Z" fill="#FF6347"/>
<path d="M149.039 143.818C149.039 149.003 147.502 154.071 144.621 158.382C141.741 162.694 137.646 166.054 132.856 168.038C128.066 170.022 122.795 170.541 117.709 169.53C112.624 168.518 107.953 166.021 104.286 162.355C100.62 158.689 98.1231 154.017 97.1116 148.932C96.1 143.847 96.6192 138.576 98.6034 133.785C100.588 128.995 103.948 124.901 108.259 122.02C112.57 119.139 117.639 117.602 122.824 117.602C126.267 117.6 129.677 118.277 132.858 119.594C136.039 120.911 138.93 122.842 141.365 125.277C143.799 127.711 145.73 130.602 147.047 133.783C148.364 136.965 149.041 140.374 149.039 143.818Z" stroke="#F2F2F2" stroke-width="0.788445" stroke-miterlimit="10"/>
<path d="M124.55 134.841L127.822 139.966L141.829 161.881C139.128 164.725 135.824 166.926 132.159 168.323C128.494 169.72 124.563 170.277 120.654 169.953C116.745 169.628 112.959 168.431 109.575 166.45C106.19 164.468 103.294 161.752 101.098 158.502L118.263 125.017L118.621 125.581" stroke="#F2F2F2" stroke-width="0.788445" stroke-linecap="round" stroke-linejoin="round"/>
<path d="M148.176 150.519C147.05 154.78 144.867 158.688 141.829 161.881L127.822 139.966L134.008 130.197C134.031 130.161 134.064 130.132 134.102 130.112C134.139 130.091 134.182 130.081 134.225 130.081C134.268 130.081 134.31 130.091 134.348 130.112C134.385 130.132 134.418 130.161 134.441 130.197C135.738 132.117 142.535 142.241 148.176 150.519Z" stroke="#F2F2F2" stroke-width="0.788445" stroke-miterlimit="10"/>
<path d="M129.328 129.034C129.329 130.406 128.853 131.736 127.981 132.795C127.11 133.854 125.897 134.578 124.55 134.841L118.637 125.573C119.369 124.56 120.403 123.804 121.591 123.415C122.779 123.026 124.06 123.024 125.25 123.409C126.439 123.793 127.476 124.545 128.212 125.556C128.948 126.566 129.344 127.784 129.344 129.034H129.328Z" stroke="#F2F2F2" stroke-width="0.788445" stroke-miterlimit="10"/>
<path d="M218.427 113.514C218.289 113.514 217.831 113.514 217.705 113.514L215.099 113.581C215.086 113.581 215.073 113.578 215.061 113.572C215.049 113.566 215.039 113.557 215.032 113.545L211.13 107.715C211.072 107.624 210.992 107.549 210.898 107.497C210.803 107.445 210.697 107.418 210.589 107.419H209.639C209.415 107.419 209.336 107.644 209.419 107.853L211.425 113.577C211.43 113.589 211.433 113.602 211.432 113.615C211.43 113.628 211.426 113.64 211.419 113.651C211.412 113.662 211.403 113.671 211.391 113.677C211.38 113.684 211.367 113.687 211.354 113.687L206.446 113.758C206.396 113.76 206.345 113.75 206.299 113.729C206.253 113.708 206.213 113.676 206.182 113.636L204.696 111.83C204.636 111.753 204.56 111.691 204.472 111.649C204.385 111.606 204.289 111.585 204.191 111.586H203.517C203.491 111.586 203.466 111.592 203.443 111.603C203.42 111.615 203.401 111.632 203.386 111.653C203.371 111.674 203.362 111.698 203.359 111.724C203.355 111.749 203.358 111.775 203.367 111.799L204.156 114.558C204.215 114.712 204.215 114.882 204.156 115.035L203.367 117.795C203.358 117.819 203.355 117.845 203.358 117.87C203.361 117.895 203.371 117.919 203.386 117.94C203.401 117.961 203.42 117.977 203.443 117.989C203.466 118 203.492 118.005 203.517 118.004H204.187C204.284 118.004 204.38 117.982 204.468 117.94C204.555 117.898 204.632 117.836 204.692 117.76L206.206 115.93C206.237 115.89 206.277 115.858 206.323 115.836C206.369 115.814 206.419 115.803 206.47 115.804L211.35 115.911C211.363 115.912 211.375 115.916 211.386 115.922C211.397 115.929 211.406 115.938 211.413 115.948C211.42 115.959 211.424 115.971 211.426 115.984C211.427 115.996 211.426 116.009 211.421 116.021L209.415 121.741C209.332 121.95 209.415 122.175 209.635 122.175H210.586C210.694 122.175 210.8 122.148 210.894 122.095C210.989 122.043 211.069 121.967 211.126 121.875L215.032 116.037C215.04 116.026 215.05 116.017 215.061 116.01C215.073 116.004 215.086 116.001 215.099 116.001L217.705 116.068C217.835 116.068 218.289 116.068 218.427 116.068C220.201 116.068 221.324 115.497 221.324 114.787C221.324 114.077 220.197 113.514 218.427 113.514Z" fill="#3F3D56"/>
<path d="M212.438 160.714C212.41 160.691 212.374 160.679 212.338 160.679C212.301 160.679 212.266 160.691 212.237 160.714L205.981 165.721C205.963 165.736 205.949 165.754 205.938 165.775C205.928 165.796 205.922 165.819 205.922 165.843V175.068C205.922 175.089 205.93 175.109 205.945 175.125C205.959 175.14 205.979 175.149 206.001 175.15H210.337C210.358 175.149 210.378 175.14 210.393 175.125C210.408 175.109 210.416 175.089 210.416 175.068V169.442C210.417 169.421 210.426 169.401 210.442 169.386C210.457 169.371 210.477 169.363 210.499 169.363H214.189C214.21 169.363 214.23 169.372 214.244 169.386C214.259 169.401 214.268 169.421 214.268 169.442V175.056C214.268 175.077 214.276 175.098 214.29 175.113C214.305 175.128 214.325 175.138 214.346 175.139H218.683C218.704 175.138 218.724 175.128 218.739 175.113C218.754 175.098 218.762 175.077 218.762 175.056V165.831C218.762 165.808 218.756 165.784 218.746 165.763C218.736 165.742 218.721 165.724 218.703 165.709L212.438 160.714Z" fill="#3F3D56"/>
<path d="M220.469 164.731L212.888 158.656C212.732 158.533 212.539 158.466 212.34 158.467C212.14 158.466 211.945 158.533 211.788 158.656L208.488 161.341V159.65C208.489 159.639 208.487 159.628 208.483 159.618C208.48 159.608 208.474 159.599 208.467 159.591C208.459 159.584 208.45 159.577 208.44 159.573C208.431 159.569 208.42 159.567 208.409 159.567H206.005C205.994 159.567 205.983 159.569 205.974 159.573C205.964 159.577 205.955 159.584 205.947 159.591C205.94 159.599 205.934 159.608 205.931 159.618C205.927 159.628 205.925 159.639 205.926 159.65V163.347L204.215 164.755C204.154 164.802 204.104 164.862 204.067 164.929C204.03 164.997 204.008 165.072 204.002 165.149C203.998 165.228 204.01 165.307 204.038 165.381C204.066 165.455 204.108 165.522 204.164 165.579C204.215 165.631 204.277 165.673 204.344 165.701C204.412 165.729 204.484 165.744 204.558 165.744C204.686 165.744 204.811 165.701 204.913 165.622L212.285 159.685C212.303 159.679 212.322 159.679 212.34 159.685C212.357 159.68 212.374 159.68 212.391 159.685L219.767 165.598C219.852 165.666 219.955 165.707 220.063 165.718C220.171 165.728 220.28 165.707 220.376 165.658C220.473 165.609 220.554 165.533 220.608 165.439C220.663 165.345 220.69 165.238 220.685 165.129C220.678 165.052 220.655 164.978 220.617 164.91C220.58 164.842 220.53 164.783 220.469 164.735V164.731Z" fill="#3F3D56"/>
<path opacity="0.3" d="M375.229 112.631H239.411C239.141 112.631 238.922 112.849 238.922 113.119V116.478C238.922 116.748 239.141 116.967 239.411 116.967H375.229C375.499 116.967 375.717 116.748 375.717 116.478V113.119C375.717 112.849 375.499 112.631 375.229 112.631Z" fill="#FF6347"/>
<path opacity="0.3" d="M375.229 164.64H239.411C239.141 164.64 238.922 164.859 238.922 165.129V168.488C238.922 168.758 239.141 168.977 239.411 168.977H375.229C375.499 168.977 375.717 168.758 375.717 168.488V165.129C375.717 164.859 375.499 164.64 375.229 164.64Z" fill="#FF6347"/>
<path d="M375.229 120.361H347.428C347.158 120.361 346.939 120.58 346.939 120.85V129.728C346.939 129.998 347.158 130.217 347.428 130.217H375.229C375.499 130.217 375.717 129.998 375.717 129.728V120.85C375.717 120.58 375.499 120.361 375.229 120.361Z" fill="#FF6347"/>
<path d="M375.229 172.399H347.428C347.158 172.399 346.939 172.618 346.939 172.888V181.765C346.939 182.035 347.158 182.254 347.428 182.254H375.229C375.499 182.254 375.717 182.035 375.717 181.765V172.888C375.717 172.618 375.499 172.399 375.229 172.399Z" fill="#FF6347"/>
<path d="M381.899 189.914L381.217 190.703C381.217 190.703 372.918 191.491 373.254 192.827C373.589 194.164 383.247 191.034 383.247 191.034L381.899 189.914Z" fill="#FFC1C7"/>
<path d="M396.927 189.24C396.927 189.24 388.057 192.394 383.231 191.038L385.474 195.528C385.474 195.528 396.927 195.189 398.949 193.163C400.971 191.136 396.927 189.24 396.927 189.24Z" fill="#FF6584"/>
<path opacity="0.1" d="M396.927 189.24C396.927 189.24 388.057 192.394 383.231 191.038L385.474 195.528C385.474 195.528 396.927 195.189 398.949 193.163C400.971 191.136 396.927 189.24 396.927 189.24Z" fill="black"/>
<path d="M390.934 165.157C394.22 165.157 396.883 162.494 396.883 159.208C396.883 155.923 394.22 153.259 390.934 153.259C387.649 153.259 384.986 155.923 384.986 159.208C384.986 162.494 387.649 165.157 390.934 165.157Z" fill="#FFC1C7"/>
<path d="M396.02 164.794C396.231 165.186 396.496 165.546 396.808 165.862C397.624 166.749 398.597 167.476 399.678 168.007C396.3 168.695 392.888 169.203 389.456 169.529C389.819 168.251 389.342 166.887 388.703 165.728C388.065 164.569 387.245 163.485 386.842 162.22L390.863 162.33C391.593 162.33 392.326 162.37 393.055 162.33C393.603 162.303 394.51 161.975 395.026 162.098C396.067 162.346 395.539 163.84 396.02 164.794Z" fill="#FFC1C7"/>
<path d="M409.518 192.721L412.885 196.762C412.885 196.762 418.491 209.897 406.27 211.23C394.049 212.562 384.938 210.217 384.938 210.217C384.938 210.217 379.999 207.851 379.884 209.657C379.77 211.462 379.325 216.504 376.628 221.444L374.263 226.833C373.902 227.22 373.633 227.684 373.478 228.19C373.323 228.696 373.285 229.231 373.368 229.754C373.703 231.438 365.842 231.997 365.956 229.754C365.956 229.754 367.08 227.846 367.08 226.723C367.08 225.599 368.874 222.907 368.874 222.907L372.13 206.743C372.13 206.743 371.905 198.433 379.541 200.006C387.178 201.579 398.07 199.667 398.07 199.667L400.538 191.026L409.518 192.721Z" fill="#575A89"/>
<path opacity="0.1" d="M409.518 192.721L412.885 196.762C412.885 196.762 418.491 209.897 406.27 211.23C394.049 212.562 384.938 210.217 384.938 210.217C384.938 210.217 379.999 207.851 379.884 209.657C379.77 211.462 379.325 216.504 376.628 221.444L374.263 226.833C373.902 227.22 373.633 227.684 373.478 228.19C373.323 228.696 373.285 229.231 373.368 229.754C373.703 231.438 365.842 231.997 365.956 229.754C365.956 229.754 367.08 227.846 367.08 226.723C367.08 225.599 368.874 222.907 368.874 222.907L372.13 206.743C372.13 206.743 371.905 198.433 379.541 200.006C387.178 201.579 398.07 199.667 398.07 199.667L400.538 191.026L409.518 192.721Z" fill="black"/>
<path d="M424.719 206.416V209.787C424.719 209.891 424.678 209.992 424.604 210.066C424.53 210.14 424.43 210.181 424.325 210.181C424.221 210.181 424.12 210.14 424.046 210.066C423.972 209.992 423.931 209.891 423.931 209.787V206.98C423.931 206.875 423.889 206.775 423.815 206.701C423.741 206.627 423.641 206.586 423.537 206.586H416.117C416.013 206.586 415.913 206.627 415.839 206.701C415.765 206.775 415.723 206.875 415.723 206.98V209.787C415.723 209.891 415.682 209.992 415.608 210.066C415.534 210.14 415.433 210.181 415.329 210.181C415.224 210.181 415.124 210.14 415.05 210.066C414.976 209.992 414.935 209.891 414.935 209.787V206.416C414.935 206.312 414.976 206.211 415.05 206.138C415.124 206.064 415.224 206.022 415.329 206.022H424.309C424.362 206.02 424.415 206.029 424.465 206.047C424.515 206.066 424.56 206.095 424.598 206.132C424.637 206.169 424.667 206.213 424.688 206.262C424.709 206.311 424.719 206.363 424.719 206.416Z" fill="#3C354C"/>
<path d="M390.17 235.194C390.145 235.772 390.341 236.337 390.717 236.776C391.093 237.215 391.621 237.495 392.196 237.56L445.369 238.873C445.392 238.875 445.415 238.872 445.436 238.864C445.458 238.857 445.478 238.845 445.495 238.829C445.519 238.809 445.534 238.781 445.538 238.75L446.244 235.47C446.282 235.284 446.3 235.093 446.295 234.903L445.16 211.104C445.148 210.713 445.034 210.332 444.829 210L444.04 208.675C444.014 208.633 443.98 208.596 443.942 208.565C443.872 208.513 443.788 208.485 443.701 208.486L393.635 209.231C393.053 209.239 392.495 209.47 392.077 209.875C391.659 210.28 391.411 210.829 391.384 211.411L390.17 235.194Z" fill="#3F3D56"/>
<path opacity="0.1" d="M443.93 208.577L445.507 238.845L445.55 238.766L446.256 235.486C446.294 235.3 446.311 235.109 446.307 234.918L445.172 211.119C445.16 210.729 445.046 210.348 444.84 210.015L444.052 208.691C444.019 208.645 443.977 208.607 443.93 208.577Z" fill="black"/>
<path d="M396.887 192.425C396.887 192.425 407.161 188.566 412.885 196.762C412.885 196.762 414.343 209.448 408.505 210.008C402.667 210.567 395.034 210.457 393.237 208.549C391.439 206.641 380.101 201.252 380.101 201.252C380.101 201.252 374.456 198.374 373.352 202.115C372.248 205.856 372.13 206.755 372.13 206.755C372.13 206.755 366.292 211.021 363.934 211.805C363.934 211.805 362.357 214.052 361.466 214.052C360.575 214.052 355.068 215.286 355.628 211.131L364.723 202.825L373.813 193.955C373.813 193.955 376.396 190.139 383.022 192.157C387.418 193.466 391.877 194.553 396.383 195.413L396.887 192.425Z" fill="#575A89"/>
<path d="M373.029 229.545C373.029 229.545 375.162 234.934 373.368 235.608C371.574 236.283 367.754 235.833 367.754 235.833C367.754 235.833 363.26 235.269 362.14 235.384C361.021 235.498 356.412 234.595 357.086 232.802C357.761 231.008 361.242 231.453 361.242 231.453L364.395 229.995C364.395 229.995 364.734 228.871 365.519 229.321C366.303 229.77 368.539 231.453 373.029 229.545Z" fill="#CBCEDA"/>
<path d="M361.352 213.595C361.352 213.595 363.717 218.87 359.893 218.42C356.069 217.971 353.156 217.186 352.036 217.076C350.917 216.966 347.901 215.925 348.37 213.847C348.395 213.717 348.406 213.585 348.402 213.453C348.402 213.173 348.796 212.629 351.812 212.712C351.812 212.712 354.055 212.712 354.966 211.135C354.954 211.131 358.32 215.397 361.352 213.595Z" fill="#CBCEDA"/>
<path d="M386.838 168.693C386.838 168.693 394.92 163.643 401.657 168.693C408.395 173.743 412.885 196.762 412.885 196.762L397.277 193.281C397.277 193.281 396.607 190.588 395.701 190.127C394.794 189.666 394.687 187.762 394.687 187.762C394.687 187.762 389.862 186.303 390.197 180.689C390.532 175.076 386.838 168.693 386.838 168.693Z" fill="#FF6584"/>
<path d="M390.974 168.918H386.819C386.819 168.918 384.347 171.725 384.012 178.797L382.664 184.423C382.664 184.423 379.857 191.16 381.54 192.283C383.223 193.407 386.484 193.293 387.154 191.049C387.824 188.806 392.452 175.769 392.452 175.769L390.974 168.918Z" fill="#FF6584"/>
<path d="M389.803 151.466C390.833 151.045 391.959 150.919 393.056 151.1C394.154 151.281 395.179 151.762 396.02 152.491C398.176 154.414 398.61 157.556 399.174 160.375C399.737 163.194 400.818 166.371 403.51 167.471C402.305 167.633 401.081 167.597 399.887 167.365L403.928 170.987L397.12 168.768C394.983 168.07 392.74 167.365 390.528 167.759C386.862 168.409 384.308 171.859 380.787 173.069L381.181 171.157H378.816C379.38 170.74 379.843 170.201 380.168 169.58C380.058 169.444 379.921 169.332 379.766 169.251C379.61 169.169 379.44 169.12 379.265 169.107C378.28 162.961 381.93 156.886 386.681 152.877C387.619 152.088 388.652 151.332 389.858 151.134C391.065 150.937 392.476 151.477 392.898 152.625" fill="#3C354C"/>
</g>
<defs>
<clipPath id="clip0_1_173">
<rect width="464" height="256" fill="white" transform="translate(0.811768 0.0487061)"/>
</clipPath>
</defs>
</svg>
