<svg width="184" height="41" viewBox="0 0 184 41" fill="none" xmlns="http://www.w3.org/2000/svg">
<g clip-path="url(#clip0_1_413)">
<path d="M31.8306 34.5001H1.84546V37.6564H31.8306V34.5001Z" fill="#2A2A31"/>
<path d="M32.7302 19.7205C32.3909 18.458 31.0968 17.7084 29.8343 18.0477L21.4463 20.2965L10.5569 10.1411L7.51108 10.9617L14.0447 22.285L6.20122 24.384L3.10012 21.9457L0.811768 22.5613L3.68405 27.5404L4.89135 29.6315L7.42433 28.9528L15.8123 26.7039L22.6694 24.8654L31.0574 22.6165C32.3198 22.2771 33.0695 20.9831 32.7302 19.7205Z" fill="white"/>
</g>
<path d="M42.7908 33.8187V10.3467H48.0828V29.3547H57.3708V33.8187H42.7908ZM66.7207 21.9387L66.1447 24.0987H71.1487L70.6087 21.9387C70.2967 20.7627 69.9727 19.5147 69.6367 18.1947C69.3247 16.8747 69.0127 15.6027 68.7007 14.3787H68.5567C68.2687 15.6267 67.9687 16.9107 67.6567 18.2307C67.3687 19.5267 67.0567 20.7627 66.7207 21.9387ZM58.2247 33.8187L65.5687 10.3467H71.9407L79.2847 33.8187H73.6687L72.2287 28.2387H65.0647L63.6247 33.8187H58.2247ZM81.8494 33.8187V10.3467H87.2854L93.4054 22.0107L95.7094 27.1947H95.8534C95.7574 25.9467 95.6254 24.5547 95.4574 23.0187C95.2894 21.4827 95.2054 20.0187 95.2054 18.6267V10.3467H100.245V33.8187H94.8094L88.6894 22.1187L86.3854 17.0067H86.2414C86.3614 18.3027 86.4934 19.6947 86.6374 21.1827C86.8054 22.6707 86.8894 24.1107 86.8894 25.5027V33.8187H81.8494ZM105.791 33.8187V10.3467H112.415C114.815 10.3467 116.891 10.7547 118.643 11.5707C120.395 12.3867 121.751 13.6587 122.711 15.3867C123.695 17.0907 124.187 19.2867 124.187 21.9747C124.187 24.6627 123.707 26.8827 122.747 28.6347C121.787 30.3867 120.443 31.6947 118.715 32.5587C117.011 33.3987 115.007 33.8187 112.703 33.8187H105.791ZM111.083 29.5347H112.091C113.435 29.5347 114.599 29.2947 115.583 28.8147C116.591 28.3347 117.371 27.5427 117.923 26.4387C118.475 25.3347 118.751 23.8467 118.751 21.9747C118.751 20.1027 118.475 18.6387 117.923 17.5827C117.371 16.5027 116.591 15.7467 115.583 15.3147C114.599 14.8587 113.435 14.6307 112.091 14.6307H111.083V29.5347ZM128.642 33.8187V10.3467H133.934V33.8187H128.642ZM139.47 33.8187V10.3467H144.906L151.026 22.0107L153.33 27.1947H153.474C153.378 25.9467 153.246 24.5547 153.078 23.0187C152.91 21.4827 152.826 20.0187 152.826 18.6267V10.3467H157.866V33.8187H152.43L146.31 22.1187L144.006 17.0067H143.862C143.982 18.3027 144.114 19.6947 144.258 21.1827C144.426 22.6707 144.51 24.1107 144.51 25.5027V33.8187H139.47ZM173.78 34.2507C171.644 34.2507 169.7 33.7947 167.948 32.8827C166.22 31.9707 164.84 30.6267 163.808 28.8507C162.8 27.0507 162.296 24.8427 162.296 22.2267C162.296 19.6347 162.812 17.4267 163.844 15.6027C164.9 13.7547 166.292 12.3507 168.02 11.3907C169.748 10.4067 171.656 9.91473 173.744 9.91473C175.448 9.91473 176.912 10.2267 178.136 10.8507C179.36 11.4747 180.356 12.1827 181.124 12.9747L178.352 16.3587C177.752 15.8307 177.116 15.3867 176.444 15.0267C175.772 14.6667 174.932 14.4867 173.924 14.4867C172.1 14.4867 170.612 15.1587 169.46 16.5027C168.308 17.8467 167.732 19.6947 167.732 22.0467C167.732 24.4467 168.284 26.3187 169.388 27.6627C170.492 29.0067 172.136 29.6787 174.32 29.6787C174.8 29.6787 175.268 29.6187 175.724 29.4987C176.18 29.3787 176.552 29.1987 176.84 28.9587V24.9267H172.952V20.6067H181.52V31.4067C180.704 32.1987 179.612 32.8707 178.244 33.4227C176.9 33.9747 175.412 34.2507 173.78 34.2507Z" fill="white"/>
<defs>
<clipPath id="clip0_1_413">
<rect width="32" height="32" fill="white" transform="translate(0.811768 7.89873)"/>
</clipPath>
</defs>
</svg>
