<svg width="184" height="46" viewBox="0 0 184 46" fill="none" xmlns="http://www.w3.org/2000/svg">
<g clip-path="url(#clip0_1_372)">
<path d="M31.8306 37.3604H1.84546V40.5167H31.8306V37.3604Z" fill="#2A2A31"/>
<path d="M32.7302 22.5809C32.3909 21.3184 31.0968 20.5688 29.8343 20.9081L21.4463 23.1569L10.5569 13.0015L7.51108 13.8221L14.0447 25.1454L6.20122 27.2444L3.10012 24.8061L0.811768 25.4217L3.68405 30.4008L4.89135 32.4918L7.42433 31.8132L15.8123 29.5643L22.6694 27.7258L31.0574 25.4768C32.3198 25.1375 33.0695 23.8435 32.7302 22.5809Z" fill="#DB2777"/>
</g>
<path d="M42.7908 36.679V13.207H48.0828V32.215H57.3708V36.679H42.7908ZM66.7207 24.799L66.1447 26.959H71.1487L70.6087 24.799C70.2967 23.623 69.9727 22.375 69.6367 21.055C69.3247 19.735 69.0127 18.463 68.7007 17.239H68.5567C68.2687 18.487 67.9687 19.771 67.6567 21.091C67.3687 22.387 67.0567 23.623 66.7207 24.799ZM58.2247 36.679L65.5687 13.207H71.9407L79.2847 36.679H73.6687L72.2287 31.099H65.0647L63.6247 36.679H58.2247ZM81.8494 36.679V13.207H87.2854L93.4054 24.871L95.7094 30.055H95.8534C95.7574 28.807 95.6254 27.415 95.4574 25.879C95.2894 24.343 95.2054 22.879 95.2054 21.487V13.207H100.245V36.679H94.8094L88.6894 24.979L86.3854 19.867H86.2414C86.3614 21.163 86.4934 22.555 86.6374 24.043C86.8054 25.531 86.8894 26.971 86.8894 28.363V36.679H81.8494ZM105.791 36.679V13.207H112.415C114.815 13.207 116.891 13.615 118.643 14.431C120.395 15.247 121.751 16.519 122.711 18.247C123.695 19.951 124.187 22.147 124.187 24.835C124.187 27.523 123.707 29.743 122.747 31.495C121.787 33.247 120.443 34.555 118.715 35.419C117.011 36.259 115.007 36.679 112.703 36.679H105.791ZM111.083 32.395H112.091C113.435 32.395 114.599 32.155 115.583 31.675C116.591 31.195 117.371 30.403 117.923 29.299C118.475 28.195 118.751 26.707 118.751 24.835C118.751 22.963 118.475 21.499 117.923 20.443C117.371 19.363 116.591 18.607 115.583 18.175C114.599 17.719 113.435 17.491 112.091 17.491H111.083V32.395ZM128.642 36.679V13.207H133.934V36.679H128.642ZM139.47 36.679V13.207H144.906L151.026 24.871L153.33 30.055H153.474C153.378 28.807 153.246 27.415 153.078 25.879C152.91 24.343 152.826 22.879 152.826 21.487V13.207H157.866V36.679H152.43L146.31 24.979L144.006 19.867H143.862C143.982 21.163 144.114 22.555 144.258 24.043C144.426 25.531 144.51 26.971 144.51 28.363V36.679H139.47ZM173.78 37.111C171.644 37.111 169.7 36.655 167.948 35.743C166.22 34.831 164.84 33.487 163.808 31.711C162.8 29.911 162.296 27.703 162.296 25.087C162.296 22.495 162.812 20.287 163.844 18.463C164.9 16.615 166.292 15.211 168.02 14.251C169.748 13.267 171.656 12.775 173.744 12.775C175.448 12.775 176.912 13.087 178.136 13.711C179.36 14.335 180.356 15.043 181.124 15.835L178.352 19.219C177.752 18.691 177.116 18.247 176.444 17.887C175.772 17.527 174.932 17.347 173.924 17.347C172.1 17.347 170.612 18.019 169.46 19.363C168.308 20.707 167.732 22.555 167.732 24.907C167.732 27.307 168.284 29.179 169.388 30.523C170.492 31.867 172.136 32.539 174.32 32.539C174.8 32.539 175.268 32.479 175.724 32.359C176.18 32.239 176.552 32.059 176.84 31.819V27.787H172.952V23.467H181.52V34.267C180.704 35.059 179.612 35.731 178.244 36.283C176.9 36.835 175.412 37.111 173.78 37.111Z" fill="#DB2777"/>
<defs>
<clipPath id="clip0_1_372">
<rect width="32" height="32" fill="white" transform="translate(0.811768 10.759)"/>
</clipPath>
</defs>
</svg>
