<svg width="1921" height="235" viewBox="0 0 1921 235" fill="none" xmlns="http://www.w3.org/2000/svg">
<path opacity="0.1" d="M-1.82971 59.2759C120.152 60.523 197.035 95.8296 390.635 139.826C519.702 169.158 729.032 179.385 1018.62 170.508C629.179 269.357 289.028 265.88 -1.82971 160.076" fill="white"/>
<path opacity="0.1" d="M132.617 200.055C371.145 156.394 571.114 129.894 732.525 120.556C893.937 111.217 1087.9 115.472 1314.41 133.322C1249.97 134.732 1087.6 159.904 827.306 208.84C567.011 257.776 335.449 254.848 132.617 200.055Z" fill="white"/>
<path opacity="0.2" d="M1404.49 128.721C1518.54 98.708 1717.86 82.9494 1932.86 113.278V220.614C1707.22 164.07 1531.1 133.439 1404.49 128.721Z" fill="white"/>
<path d="M-3.90417 148.059C72.2319 173.823 127.519 190.778 161.957 198.921C239.441 217.246 310.484 223.693 361.222 227.953C414.089 232.39 528.746 231.102 615.316 225.539C649.916 223.316 692.895 218.425 744.252 210.869C796.446 202.592 832.243 196.424 851.639 192.368C888.093 184.748 953.419 168.855 973.725 164.318C1044.8 148.438 1096.39 132.593 1146.78 123.682C1236.01 107.905 1280.36 105.69 1354.99 102.88C1421.57 104.285 1470.89 106.506 1502.95 109.542C1557.36 114.694 1620.44 126.259 1656.44 132.287C1724.28 143.64 1816.37 166.071 1932.71 199.578L1933.12 242.599L-3.01145 242.167L-3.90417 148.059Z" fill="white"/>
</svg>
